<svg xmlns="http://www.w3.org/2000/svg" xmlns:xlink="http://www.w3.org/1999/xlink" width="184" height="34" viewBox="0 0 184 34">
  <defs>
    <clipPath id="clip-path">
      <rect id="Rectangle_12" data-name="Rectangle 12" width="33.192" height="33.192" fill="#c6c6c6"/>
    </clipPath>
    <clipPath id="clip-Javascript">
      <rect width="184" height="34"/>
    </clipPath>
  </defs>
  <g id="Javascript" clip-path="url(#clip-Javascript)">
    <path id="Path_47" data-name="Path 47" d="M5.434.33A5.54,5.54,0,0,1,3.2-.088,4.969,4.969,0,0,1,1.595-1.177a5.139,5.139,0,0,1-.99-1.408A4.378,4.378,0,0,1,.2-3.96l3.08-1.034a3.351,3.351,0,0,0,.836,1.54,1.893,1.893,0,0,0,1.364.528A2.311,2.311,0,0,0,6.6-3.2a2.009,2.009,0,0,0,.814-.858,3.164,3.164,0,0,0,.308-1.485V-15.4h3.542V-4.62a4.832,4.832,0,0,1-.418,2.035A4.431,4.431,0,0,1,9.658-1.023a5.461,5.461,0,0,1-1.848,1A7.621,7.621,0,0,1,5.434.33ZM25.278,0,19.514-15.4h3.52L29.018,0ZM13.266,0,19.25-15.4h3.52L17.006,0Zm2.816-2.926V-6.05H26.224v3.124ZM34.276,0l5.61-15.4h3.828L37.708,0Zm-.4,0L27.852-15.4h3.806L37.312,0ZM54.538,0,48.774-15.4h3.52L58.278,0ZM42.526,0,48.51-15.4h3.52L46.266,0Zm2.816-2.926V-6.05H55.484v3.124ZM65.78.264a7.655,7.655,0,0,1-2.145-.3,7.283,7.283,0,0,1-1.848-.814,5.456,5.456,0,0,1-1.353-1.166,3.03,3.03,0,0,1-.66-1.4l3.5-.99a2.557,2.557,0,0,0,.847,1.111,2.509,2.509,0,0,0,1.529.495,2.391,2.391,0,0,0,1.507-.418,1.354,1.354,0,0,0,.605-1.144,1.313,1.313,0,0,0-.429-.968,2.786,2.786,0,0,0-1.221-.638l-2.178-.55a5.693,5.693,0,0,1-1.991-.9,4.4,4.4,0,0,1-1.32-1.507,4.273,4.273,0,0,1-.473-2.035,4.286,4.286,0,0,1,1.474-3.465,6.268,6.268,0,0,1,4.158-1.243,7.408,7.408,0,0,1,2.574.407,5.076,5.076,0,0,1,1.881,1.2,5.738,5.738,0,0,1,1.243,1.98L68-11.044a2.237,2.237,0,0,0-.759-1.078,2.281,2.281,0,0,0-1.507-.484,2.233,2.233,0,0,0-1.441.418,1.465,1.465,0,0,0-.517,1.21,1.158,1.158,0,0,0,.418.913,2.683,2.683,0,0,0,1.144.539l2.178.55a5.294,5.294,0,0,1,2.915,1.727,4.386,4.386,0,0,1,1.045,2.871,4.467,4.467,0,0,1-.671,2.486A4.316,4.316,0,0,1,68.86-.3,7.627,7.627,0,0,1,65.78.264Zm15.488,0A7.847,7.847,0,0,1,77.231-.759a7.352,7.352,0,0,1-2.75-2.816,8.319,8.319,0,0,1-1-4.125,8.319,8.319,0,0,1,1-4.125,7.352,7.352,0,0,1,2.75-2.816,7.847,7.847,0,0,1,4.037-1.023,7.891,7.891,0,0,1,3.069.583,7.178,7.178,0,0,1,2.42,1.639A7.392,7.392,0,0,1,88.33-11L85.008-9.878a4.334,4.334,0,0,0-.891-1.342,3.98,3.98,0,0,0-1.276-.88,3.935,3.935,0,0,0-1.573-.308,3.969,3.969,0,0,0-2.156.594,4.012,4.012,0,0,0-1.474,1.661A5.461,5.461,0,0,0,77.11-7.7a5.368,5.368,0,0,0,.539,2.453,4.139,4.139,0,0,0,1.5,1.672,4.009,4.009,0,0,0,2.189.6A3.742,3.742,0,0,0,82.94-3.3a3.666,3.666,0,0,0,1.221-.924,6.17,6.17,0,0,0,.891-1.364l3.322,1.122a7.1,7.1,0,0,1-1.562,2.475A7.326,7.326,0,0,1,84.37-.33,7.9,7.9,0,0,1,81.268.264ZM90.86,0V-15.4h6.05a6.554,6.554,0,0,1,2.97.649,5.018,5.018,0,0,1,2.035,1.8,4.821,4.821,0,0,1,.737,2.651,4.822,4.822,0,0,1-.748,2.662,5.052,5.052,0,0,1-2.057,1.815,6.674,6.674,0,0,1-3,.649H94.4V0Zm8.36,0L95.744-6.116l2.662-1.958L103.268,0ZM94.4-8.426h2.4a2.427,2.427,0,0,0,1.1-.242,1.877,1.877,0,0,0,.759-.671,1.736,1.736,0,0,0,.275-.957,1.7,1.7,0,0,0-.605-1.342,2.339,2.339,0,0,0-1.595-.528H94.4ZM105.8,0V-15.4h3.542V0Zm7.084,0V-15.4h6.05a6.375,6.375,0,0,1,2.97.671,5.119,5.119,0,0,1,2.035,1.848,5.052,5.052,0,0,1,.737,2.739,5.2,5.2,0,0,1-.715,2.717,5.023,5.023,0,0,1-1.991,1.881,6.112,6.112,0,0,1-2.926.682h-2.618V0Zm3.542-8.118h2.53a2.074,2.074,0,0,0,1.518-.561,1.958,1.958,0,0,0,.572-1.463,1.9,1.9,0,0,0-.6-1.463,2.252,2.252,0,0,0-1.6-.561h-2.42ZM130.284,0V-12.144H125.8V-15.4h12.5v3.256H133.8V0Z" transform="translate(45.192 24)" fill="#c6c6c6"/>
    <g id="Group_11" data-name="Group 11">
      <g id="Group_10" data-name="Group 10" clip-path="url(#clip-path)">
        <path id="Path_27" data-name="Path 27" d="M30.4,33.191H2.79A2.79,2.79,0,0,1,0,30.4V2.789A2.79,2.79,0,0,1,2.79,0H30.4a2.79,2.79,0,0,1,2.79,2.79V30.4a2.79,2.79,0,0,1-2.79,2.79M19.718,27.376c.029.062.047.105.07.146a5.282,5.282,0,0,0,2.074,2.152,7.125,7.125,0,0,0,5.882.5,3.952,3.952,0,0,0,2.285-1.834,4.381,4.381,0,0,0,.517-2.4,4.074,4.074,0,0,0-1.565-3.172,10.517,10.517,0,0,0-2.362-1.347c-.566-.251-1.142-.485-1.7-.762a3.623,3.623,0,0,1-.827-.566,1.345,1.345,0,0,1,.58-2.233,1.97,1.97,0,0,1,2.129.655c.146.185.274.383.421.591l2.414-1.55a4.536,4.536,0,0,0-2.215-2.095,5.771,5.771,0,0,0-3.682-.214,3.946,3.946,0,0,0-3.092,3.883,4.174,4.174,0,0,0,1.963,3.795,14.375,14.375,0,0,0,1.6.87c.69.335,1.4.621,2.092.956a3,3,0,0,1,.716.507,1.32,1.32,0,0,1,.366,1.32,1.425,1.425,0,0,1-1.049,1.058,3.28,3.28,0,0,1-2.655-.234,3.752,3.752,0,0,1-1.326-1.323c-.033-.051-.069-.1-.112-.165l-2.532,1.466m-11.005.331a.918.918,0,0,0,.032.088A4.62,4.62,0,0,0,11.069,30.1a5.868,5.868,0,0,0,4.237.165,3.657,3.657,0,0,0,2.433-2.437,6.384,6.384,0,0,0,.294-2.082q0-5.159,0-10.318c0-.061-.005-.122-.008-.182H14.913V15.5q0,5.1,0,10.207a5.4,5.4,0,0,1-.059.816,1.26,1.26,0,0,1-.643,1.047,1.909,1.909,0,0,1-1.992-.113,2.554,2.554,0,0,1-.694-.808c-.094-.15-.183-.3-.281-.468l-2.529,1.53" transform="translate(0 0.001)" fill="#c6c6c6"/>
      </g>
    </g>
  </g>
</svg>
