<svg xmlns="http://www.w3.org/2000/svg" xmlns:xlink="http://www.w3.org/1999/xlink" width="139" height="34" viewBox="0 0 139 34">
  <defs>
    <clipPath id="clip-path">
      <rect id="Rectangle_15" data-name="Rectangle 15" width="33" height="33" rx="5" transform="translate(0.365 0)" fill="#c6c6c6"/>
    </clipPath>
    <clipPath id="clip-Next.JS">
      <rect width="139" height="34"/>
    </clipPath>
  </defs>
  <g id="Next.JS" clip-path="url(#clip-Next.JS)">
    <path id="Path_46" data-name="Path 46" d="M1.5,0V-15.4H5.214l6.754,9.394V-15.4H15.51V0H11.968L5.038-9.658V0ZM19.052,0V-15.4H29.084v3.256h-6.49v2.816h5.434v3.146H22.594v2.926h6.6V0ZM31.24,0l5.984-8.426L42.042-15.4h4.224l-5.83,7.964L35.508,0ZM42.13,0,37.224-7.436,31.372-15.4H35.6l4.84,6.974L46.4,0Zm9.878,0V-12.144H47.52V-15.4h12.5v3.256H55.528V0ZM63.844.33a1.949,1.949,0,0,1-1.43-.594,1.949,1.949,0,0,1-.594-1.43A1.924,1.924,0,0,1,62.414-3.1a1.949,1.949,0,0,1,1.43-.594,1.924,1.924,0,0,1,1.408.594,1.924,1.924,0,0,1,.594,1.408,1.949,1.949,0,0,1-.594,1.43A1.924,1.924,0,0,1,63.844.33Zm8.91,0a5.54,5.54,0,0,1-2.233-.418,4.969,4.969,0,0,1-1.606-1.089,5.139,5.139,0,0,1-.99-1.408,4.378,4.378,0,0,1-.407-1.375L70.6-4.994a3.351,3.351,0,0,0,.836,1.54,1.893,1.893,0,0,0,1.364.528A2.311,2.311,0,0,0,73.92-3.2a2.008,2.008,0,0,0,.814-.858,3.164,3.164,0,0,0,.308-1.485V-15.4h3.542V-4.62a4.832,4.832,0,0,1-.418,2.035,4.431,4.431,0,0,1-1.188,1.562,5.461,5.461,0,0,1-1.848,1A7.621,7.621,0,0,1,72.754.33ZM87.186.264a7.655,7.655,0,0,1-2.145-.3,7.283,7.283,0,0,1-1.848-.814A5.456,5.456,0,0,1,81.84-2.013a3.03,3.03,0,0,1-.66-1.4l3.5-.99a2.557,2.557,0,0,0,.847,1.111,2.509,2.509,0,0,0,1.529.495,2.391,2.391,0,0,0,1.507-.418,1.354,1.354,0,0,0,.6-1.144,1.313,1.313,0,0,0-.429-.968,2.786,2.786,0,0,0-1.221-.638l-2.178-.55a5.693,5.693,0,0,1-1.991-.9,4.4,4.4,0,0,1-1.32-1.507,4.274,4.274,0,0,1-.473-2.035,4.286,4.286,0,0,1,1.474-3.465,6.268,6.268,0,0,1,4.158-1.243,7.407,7.407,0,0,1,2.574.407,5.076,5.076,0,0,1,1.881,1.2,5.738,5.738,0,0,1,1.243,1.98l-3.476,1.034a2.237,2.237,0,0,0-.759-1.078,2.281,2.281,0,0,0-1.507-.484,2.233,2.233,0,0,0-1.441.418,1.465,1.465,0,0,0-.517,1.21,1.158,1.158,0,0,0,.418.913,2.683,2.683,0,0,0,1.144.539l2.178.55a5.294,5.294,0,0,1,2.915,1.727,4.386,4.386,0,0,1,1.045,2.871,4.467,4.467,0,0,1-.671,2.486A4.316,4.316,0,0,1,90.266-.3,7.627,7.627,0,0,1,87.186.264Z" transform="translate(44.559 25)" fill="#c6c6c6"/>
    <g id="Group_17" data-name="Group 17" transform="translate(-0.806 1)">
      <g id="Group_16" data-name="Group 16" transform="translate(0 0)" clip-path="url(#clip-path)">
        <path id="Path_43" data-name="Path 43" d="M0,0V34.012H25.292l-1.22-1.831-2.128-3.193-9.859-14.8v11.16c0,1.237-2.32,1.237-2.32,0V10.391c0-.982,1.788-1.062,2.294-.209L22.933,26.92l2.79,4.294,1.818,2.8h5.8V0ZM23.617,23.479,21.29,19.854V9.928c0-.925,2.327-.925,2.327,0Z" transform="translate(0 -0.375)" fill="#c6c6c6"/>
      </g>
    </g>
  </g>
</svg>
