<svg xmlns="http://www.w3.org/2000/svg" xmlns:xlink="http://www.w3.org/1999/xlink" width="120" height="34" viewBox="0 0 120 34">
  <defs>
    <clipPath id="clip-path">
      <rect id="Rectangle_14" data-name="Rectangle 14" width="33.192" height="33.192" rx="5" fill="#c6c6c6"/>
    </clipPath>
    <clipPath id="clip-React">
      <rect width="120" height="34"/>
    </clipPath>
  </defs>
  <g id="React" clip-path="url(#clip-React)">
    <path id="Path_45" data-name="Path 45" d="M1.5,0V-15.4h6.05a6.554,6.554,0,0,1,2.97.649,5.018,5.018,0,0,1,2.035,1.8,4.821,4.821,0,0,1,.737,2.651,4.822,4.822,0,0,1-.748,2.662,5.052,5.052,0,0,1-2.057,1.815,6.674,6.674,0,0,1-3,.649H5.038V0Zm8.36,0L6.38-6.116,9.042-8.074,13.9,0ZM5.038-8.426h2.4a2.427,2.427,0,0,0,1.1-.242A1.877,1.877,0,0,0,9.3-9.339,1.736,1.736,0,0,0,9.57-10.3a1.7,1.7,0,0,0-.6-1.342,2.339,2.339,0,0,0-1.595-.528H5.038ZM16.434,0V-15.4H26.466v3.256h-6.49v2.816H25.41v3.146H19.976v2.926h6.6V0ZM40.59,0,34.826-15.4h3.52L44.33,0ZM28.578,0l5.984-15.4h3.52L32.318,0Zm2.816-2.926V-6.05H41.536v3.124ZM52.888.264A7.847,7.847,0,0,1,48.851-.759,7.352,7.352,0,0,1,46.1-3.575a8.319,8.319,0,0,1-1-4.125,8.319,8.319,0,0,1,1-4.125,7.352,7.352,0,0,1,2.75-2.816,7.847,7.847,0,0,1,4.037-1.023,7.891,7.891,0,0,1,3.069.583,7.178,7.178,0,0,1,2.42,1.639A7.392,7.392,0,0,1,59.95-11L56.628-9.878a4.334,4.334,0,0,0-.891-1.342,3.98,3.98,0,0,0-1.276-.88,3.935,3.935,0,0,0-1.573-.308,3.969,3.969,0,0,0-2.156.594,4.012,4.012,0,0,0-1.474,1.661A5.461,5.461,0,0,0,48.73-7.7a5.368,5.368,0,0,0,.539,2.453,4.139,4.139,0,0,0,1.5,1.672,4.009,4.009,0,0,0,2.189.6A3.742,3.742,0,0,0,54.56-3.3a3.666,3.666,0,0,0,1.221-.924,6.169,6.169,0,0,0,.891-1.364l3.322,1.122a7.1,7.1,0,0,1-1.562,2.475A7.326,7.326,0,0,1,55.99-.33,7.9,7.9,0,0,1,52.888.264ZM65.824,0V-12.144H61.336V-15.4h12.5v3.256H69.344V0Z" transform="translate(45.559 24)" fill="#c6c6c6"/>
    <g id="Group_15" data-name="Group 15" transform="translate(0.367)">
      <g id="Group_14" data-name="Group 14" transform="translate(0 0)" clip-path="url(#clip-path)">
        <path id="Path_29" data-name="Path 29" d="M33.409,33.226V.148A.148.148,0,0,0,33.261,0H.148A.148.148,0,0,0,0,.148V33.261a.148.148,0,0,0,.148.148H33.261a.148.148,0,0,0,.148-.149c0-.011,0-.023,0-.034M32.031,17.874a5.081,5.081,0,0,1-1.465,1.743,12.116,12.116,0,0,1-3.324,1.83c-.426.163-.862.3-1.294.448a.148.148,0,0,0-.1.171c.063.3.127.585.182.876a13.312,13.312,0,0,1,.225,3.725,6.175,6.175,0,0,1-.48,2.008,4.912,4.912,0,0,1-.539.919,2.554,2.554,0,0,1-1.989,1.018,5.306,5.306,0,0,1-2.416-.51,12.869,12.869,0,0,1-3.275-2.14c-.243-.21-.479-.428-.723-.649a.148.148,0,0,0-.2,0l-.071.066a14.59,14.59,0,0,1-3.433,2.464,7.019,7.019,0,0,1-2.248.73A3.137,3.137,0,0,1,8.8,30.218a3.04,3.04,0,0,1-1.212-1.479,6.831,6.831,0,0,1-.495-2.48,15.105,15.105,0,0,1,.463-4.044l.017-.071a.148.148,0,0,0-.1-.173l-.086-.027a14.892,14.892,0,0,1-3.62-1.591,7.1,7.1,0,0,1-2.1-1.875,3.069,3.069,0,0,1-.632-1.791A2.939,2.939,0,0,1,1.608,15a6.379,6.379,0,0,1,1.84-1.715,14.447,14.447,0,0,1,3.637-1.646c.166-.052.333-.1.5-.152a.255.255,0,0,0,.036-.022c-.011-.052-.021-.11-.035-.167A15.6,15.6,0,0,1,7.1,7.245,7.008,7.008,0,0,1,7.57,4.732,2.97,2.97,0,0,1,8.891,3.155a3.093,3.093,0,0,1,1.89-.3,7.325,7.325,0,0,1,2.653.938,15.824,15.824,0,0,1,3.15,2.351c.028.027.058.053.087.079a.145.145,0,0,0,.034.013l.3-.279a15,15,0,0,1,3.277-2.373,6.768,6.768,0,0,1,2.252-.755A2.766,2.766,0,0,1,25.6,4.414a5.087,5.087,0,0,1,.311.773A8.522,8.522,0,0,1,26.245,8a16.382,16.382,0,0,1-.47,3.379c-.025.106.01.134.1.16a16.22,16.22,0,0,1,3.307,1.338,7.938,7.938,0,0,1,2.295,1.784,3.3,3.3,0,0,1,.819,1.719,2.631,2.631,0,0,1-.264,1.495" transform="translate(-0.109 -0.108)" fill="#c6c6c6"/>
        <path id="Path_30" data-name="Path 30" d="M73.354,84.6c.908.032,1.816.067,2.737.1.893-.037,1.8-.076,2.7-.109a.258.258,0,0,0,.229-.135,43.984,43.984,0,0,0,2.7-4.7.264.264,0,0,0,0-.265,47.581,47.581,0,0,0-2.575-4.476.686.686,0,0,0-.612-.348,40.32,40.32,0,0,0-5.189.023.236.236,0,0,0-.2.116,37.811,37.811,0,0,0-2.724,4.734.264.264,0,0,0,0,.2A37.728,37.728,0,0,0,73.164,84.5a.215.215,0,0,0,.191.106m2.718-7.78a2.789,2.789,0,1,1-2.792,2.79,2.791,2.791,0,0,1,2.792-2.79" transform="translate(-59.498 -63.04)" fill="#c6c6c6"/>
        <path id="Path_31" data-name="Path 31" d="M22.232,85.444a31.533,31.533,0,0,1-1.424-3.684c-.013-.04-.029-.08-.045-.124a.888.888,0,0,0-.109.023c-.68.241-1.369.459-2.037.73a8.726,8.726,0,0,0-2.35,1.388,3.763,3.763,0,0,0-.928,1.084,1.35,1.35,0,0,0-.016,1.348,4.02,4.02,0,0,0,.378.576,5,5,0,0,0,1,.931A12.107,12.107,0,0,0,20,89.363c.241.082.486.155.735.234.02-.054.035-.089.046-.126a31.867,31.867,0,0,1,1.451-3.758.288.288,0,0,0,0-.268" transform="translate(-12.89 -68.977)" fill="#c6c6c6"/>
        <path id="Path_32" data-name="Path 32" d="M58.514,143.493a.245.245,0,0,0-.161-.08,34.239,34.239,0,0,1-3.435-.467c-.221-.043-.441-.088-.671-.134-.019.074-.04.136-.051.2-.119.658-.261,1.314-.349,1.976a8.828,8.828,0,0,0,.034,2.754,3.617,3.617,0,0,0,.5,1.363,1.291,1.291,0,0,0,.922.621,3,3,0,0,0,.61.023,4.58,4.58,0,0,0,1.422-.365,11.035,11.035,0,0,0,2.817-1.745c.342-.281.669-.581,1.009-.878-.028-.04-.037-.055-.048-.067a33.638,33.638,0,0,1-2.6-3.2" transform="translate(-45.457 -120.584)" fill="#c6c6c6"/>
        <path id="Path_33" data-name="Path 33" d="M119.809,142.42c-.069.013-.112.02-.153.03a30.854,30.854,0,0,1-3.943.6.3.3,0,0,0-.243.139,30.862,30.862,0,0,1-2.458,3.126c-.025.028-.046.059-.081.1.327.289.64.578.965.852a11.15,11.15,0,0,0,2.734,1.757,4.1,4.1,0,0,0,1.792.4,1.312,1.312,0,0,0,1.09-.57,3.238,3.238,0,0,0,.318-.567,6.2,6.2,0,0,0,.416-2.362,12.464,12.464,0,0,0-.221-2.452c-.064-.35-.141-.7-.216-1.063" transform="translate(-95.377 -120.254)" fill="#c6c6c6"/>
        <path id="Path_34" data-name="Path 34" d="M54.31,33.441c.02.082.052.112.134.083a.893.893,0,0,1,.114-.026,31.877,31.877,0,0,1,3.828-.585.264.264,0,0,0,.211-.125,31.645,31.645,0,0,1,2.5-3.1c.026-.028.05-.059.081-.1a.584.584,0,0,0-.042-.051,13.977,13.977,0,0,0-3.224-2.354,5.427,5.427,0,0,0-2.041-.639,1.435,1.435,0,0,0-1.552.861,4.2,4.2,0,0,0-.387,1.308,9.746,9.746,0,0,0-.026,2.395,16.771,16.771,0,0,0,.406,2.324" transform="translate(-45.531 -22.502)" fill="#c6c6c6"/>
        <path id="Path_35" data-name="Path 35" d="M115.348,32.645a.309.309,0,0,0,.19.1c.968.141,1.937.269,2.9.415.382.057.758.15,1.148.228a.6.6,0,0,0,.028-.07,13.4,13.4,0,0,0,.394-4.359,4.6,4.6,0,0,0-.484-1.776,1.427,1.427,0,0,0-1.561-.819,5.338,5.338,0,0,0-1.912.618,13.974,13.974,0,0,0-3.24,2.4.505.505,0,0,0-.041.053c.019.025.033.046.051.065a32.474,32.474,0,0,1,2.523,3.142" transform="translate(-95.246 -22.343)" fill="#c6c6c6"/>
        <path id="Path_36" data-name="Path 36" d="M159.4,84.526a4.954,4.954,0,0,0-1.047-.975,12.18,12.18,0,0,0-3.183-1.57c-.3-.1-.6-.194-.909-.293-.02.048-.035.079-.045.111a30.976,30.976,0,0,1-1.442,3.691.246.246,0,0,0,.006.232,31.188,31.188,0,0,1,1.489,3.715c.013.04.03.079.049.128.054-.015.1-.026.145-.041.423-.147.851-.281,1.268-.444a10.691,10.691,0,0,0,2.875-1.594,4.161,4.161,0,0,0,1.015-1.129,1.382,1.382,0,0,0-.014-1.529,3.573,3.573,0,0,0-.207-.3" transform="translate(-128.967 -69.02)" fill="#c6c6c6"/>
        <path id="Path_37" data-name="Path 37" d="M137.854,116.58l-1.872,3.256a27.514,27.514,0,0,0,2.925-.505l-1.053-2.751" transform="translate(-114.823 -98.455)" fill="#c6c6c6"/>
        <path id="Path_38" data-name="Path 38" d="M94.958,147.45l-.029.031,1.868,2.238a28.272,28.272,0,0,0,1.847-2.268Z" transform="translate(-80.191 -124.497)" fill="#c6c6c6"/>
        <path id="Path_39" data-name="Path 39" d="M61.9,120.13l-1.87-3.227-1.014,2.76a27.229,27.229,0,0,0,2.884.467" transform="translate(-49.897 -98.728)" fill="#c6c6c6"/>
        <path id="Path_40" data-name="Path 40" d="M135.9,76.241l1.848,3.189a18.561,18.561,0,0,0,.981-2.7l-2.829-.494" transform="translate(-114.757 -64.425)" fill="#c6c6c6"/>
        <path id="Path_41" data-name="Path 41" d="M98.612,54.32a28.208,28.208,0,0,0-1.833-2.21c-.658.711-1.266,1.442-1.848,2.21Z" transform="translate(-80.193 -44.068)" fill="#c6c6c6"/>
        <path id="Path_42" data-name="Path 42" d="M59.255,76.725a28.2,28.2,0,0,0,.992,2.707l1.842-3.194-2.834.487" transform="translate(-50.096 -64.423)" fill="#c6c6c6"/>
      </g>
    </g>
  </g>
</svg>
