<svg xmlns="http://www.w3.org/2000/svg" xmlns:xlink="http://www.w3.org/1999/xlink" width="181" height="34" viewBox="0 0 181 34">
  <defs>
    <clipPath id="clip-path">
      <rect id="Rectangle_13" data-name="Rectangle 13" width="33.176" height="33.192" fill="#c6c6c6"/>
    </clipPath>
    <clipPath id="clip-Typescript">
      <rect width="181" height="34"/>
    </clipPath>
  </defs>
  <g id="Typescript" clip-path="url(#clip-Typescript)">
    <path id="Path_44" data-name="Path 44" d="M4.84,0V-12.144H.352V-15.4h12.5v3.256H8.36V0ZM22.7-6.336l-3.41-.7,4.928-8.36h4.026ZM19.294,0V-7.392h3.542V0Zm.11-6.336L13.86-15.4h4.026l4.928,8.36ZM30.426,0V-15.4h6.05a6.375,6.375,0,0,1,2.97.671,5.119,5.119,0,0,1,2.035,1.848,5.052,5.052,0,0,1,.737,2.739A5.2,5.2,0,0,1,41.5-7.425a5.023,5.023,0,0,1-1.991,1.881,6.112,6.112,0,0,1-2.926.682H33.968V0Zm3.542-8.118H36.5a2.074,2.074,0,0,0,1.518-.561,1.958,1.958,0,0,0,.572-1.463,1.9,1.9,0,0,0-.6-1.463,2.252,2.252,0,0,0-1.6-.561h-2.42ZM44.484,0V-15.4H54.516v3.256h-6.49v2.816H53.46v3.146H48.026v2.926h6.6V0ZM63.228.264a7.655,7.655,0,0,1-2.145-.3,7.283,7.283,0,0,1-1.848-.814,5.456,5.456,0,0,1-1.353-1.166,3.03,3.03,0,0,1-.66-1.4l3.5-.99a2.557,2.557,0,0,0,.847,1.111,2.509,2.509,0,0,0,1.529.495A2.391,2.391,0,0,0,64.6-3.212a1.354,1.354,0,0,0,.605-1.144,1.313,1.313,0,0,0-.429-.968,2.786,2.786,0,0,0-1.221-.638l-2.178-.55a5.693,5.693,0,0,1-1.991-.9,4.4,4.4,0,0,1-1.32-1.507,4.273,4.273,0,0,1-.473-2.035,4.286,4.286,0,0,1,1.474-3.465,6.268,6.268,0,0,1,4.158-1.243,7.408,7.408,0,0,1,2.574.407,5.076,5.076,0,0,1,1.881,1.2,5.738,5.738,0,0,1,1.243,1.98L65.45-11.044a2.237,2.237,0,0,0-.759-1.078,2.281,2.281,0,0,0-1.507-.484,2.233,2.233,0,0,0-1.441.418,1.465,1.465,0,0,0-.517,1.21,1.158,1.158,0,0,0,.418.913,2.683,2.683,0,0,0,1.144.539l2.178.55a5.294,5.294,0,0,1,2.915,1.727,4.386,4.386,0,0,1,1.045,2.871,4.467,4.467,0,0,1-.671,2.486A4.316,4.316,0,0,1,66.308-.3,7.627,7.627,0,0,1,63.228.264Zm15.488,0A7.847,7.847,0,0,1,74.679-.759a7.352,7.352,0,0,1-2.75-2.816,8.319,8.319,0,0,1-1-4.125,8.319,8.319,0,0,1,1-4.125,7.352,7.352,0,0,1,2.75-2.816,7.847,7.847,0,0,1,4.037-1.023,7.891,7.891,0,0,1,3.069.583,7.178,7.178,0,0,1,2.42,1.639A7.392,7.392,0,0,1,85.778-11L82.456-9.878a4.334,4.334,0,0,0-.891-1.342,3.98,3.98,0,0,0-1.276-.88,3.935,3.935,0,0,0-1.573-.308,3.969,3.969,0,0,0-2.156.594,4.012,4.012,0,0,0-1.474,1.661A5.461,5.461,0,0,0,74.558-7.7,5.368,5.368,0,0,0,75.1-5.247a4.139,4.139,0,0,0,1.5,1.672,4.009,4.009,0,0,0,2.189.6,3.742,3.742,0,0,0,1.606-.33,3.666,3.666,0,0,0,1.221-.924A6.17,6.17,0,0,0,82.5-5.588l3.322,1.122A7.1,7.1,0,0,1,84.26-1.991,7.326,7.326,0,0,1,81.818-.33,7.9,7.9,0,0,1,78.716.264ZM88.308,0V-15.4h6.05a6.554,6.554,0,0,1,2.97.649,5.018,5.018,0,0,1,2.035,1.8A4.821,4.821,0,0,1,100.1-10.3a4.822,4.822,0,0,1-.748,2.662,5.052,5.052,0,0,1-2.057,1.815,6.674,6.674,0,0,1-3,.649H91.85V0Zm8.36,0L93.192-6.116l2.662-1.958L100.716,0ZM91.85-8.426h2.4a2.427,2.427,0,0,0,1.1-.242,1.877,1.877,0,0,0,.759-.671,1.736,1.736,0,0,0,.275-.957,1.7,1.7,0,0,0-.605-1.342,2.339,2.339,0,0,0-1.595-.528H91.85ZM103.246,0V-15.4h3.542V0Zm7.084,0V-15.4h6.05a6.375,6.375,0,0,1,2.97.671,5.119,5.119,0,0,1,2.035,1.848,5.052,5.052,0,0,1,.737,2.739,5.2,5.2,0,0,1-.715,2.717,5.023,5.023,0,0,1-1.991,1.881,6.112,6.112,0,0,1-2.926.682h-2.618V0Zm3.542-8.118h2.53a2.074,2.074,0,0,0,1.518-.561,1.958,1.958,0,0,0,.572-1.463,1.9,1.9,0,0,0-.6-1.463,2.252,2.252,0,0,0-1.6-.561h-2.42ZM127.732,0V-12.144h-4.488V-15.4h12.5v3.256h-4.488V0Z" transform="translate(45.367 24.096)" fill="#c6c6c6"/>
    <g id="Group_13" data-name="Group 13" transform="translate(0.192)">
      <g id="Group_12" data-name="Group 12" clip-path="url(#clip-path)">
        <path id="Path_28" data-name="Path 28" d="M0,30.341V2.816a.812.812,0,0,0,.087-.292A3.22,3.22,0,0,1,2.631.05L2.851,0H30.389a.745.745,0,0,0,.188.046,3.223,3.223,0,0,1,2.5,2.252c.046.137.068.281.1.422V30.438c-.024.11-.04.223-.074.33a3.213,3.213,0,0,1-2.655,2.368,1.2,1.2,0,0,0-.252.054H3.013a2.56,2.56,0,0,0-.379-.077A3.221,3.221,0,0,1,.073,30.57.592.592,0,0,0,0,30.341m20.576-2.309c0,.464.006.928,0,1.392a.275.275,0,0,0,.192.294,7.071,7.071,0,0,0,1.417.453,12.031,12.031,0,0,0,3.075.239,11.274,11.274,0,0,0,1.511-.175,5.345,5.345,0,0,0,2.051-.806,3.577,3.577,0,0,0,1.549-2.286,5.5,5.5,0,0,0,.088-1.273,3.656,3.656,0,0,0-1.356-2.81,7.848,7.848,0,0,0-1.79-1.1c-.352-.165-.712-.311-1.068-.468a9.074,9.074,0,0,1-1.464-.761,2.725,2.725,0,0,1-.565-.506,1.18,1.18,0,0,1,.08-1.6,2.213,2.213,0,0,1,1.039-.533,4.792,4.792,0,0,1,1.689-.086,6.33,6.33,0,0,1,2.67.878c.116.071.135.06.14-.073,0-.038,0-.076,0-.113q0-1.214,0-2.429c0-.043,0-.087,0-.129a.187.187,0,0,0-.153-.214c-.165-.049-.328-.108-.494-.155a10.9,10.9,0,0,0-2.837-.346,9.468,9.468,0,0,0-1.9.16,5.731,5.731,0,0,0-2.328.927,3.638,3.638,0,0,0-1.456,2.041,4.5,4.5,0,0,0-.121,1.653A3.675,3.675,0,0,0,21.6,22.479a6.078,6.078,0,0,0,1.521,1.09c.445.235.915.414,1.375.613a10.623,10.623,0,0,1,1.508.746,2.742,2.742,0,0,1,.811.734,1.23,1.23,0,0,1-.24,1.685,2.106,2.106,0,0,1-.764.377,4.814,4.814,0,0,1-1.895.122,6.223,6.223,0,0,1-3.182-1.3c-.037-.029-.075-.085-.122-.066s-.035.094-.035.145c0,.47,0,.939,0,1.409m-5.483-3.714q0-2.825,0-5.649c0-.281,0-.281.275-.281h3.6c.283,0,.284,0,.284-.291q0-1.02,0-2.039c0-.311,0-.311-.312-.311H7.892c-.2,0-.206.014-.208.216,0,.016,0,.032,0,.049q0,1.052,0,2.1c0,.272,0,.272.266.272h3.644c.223,0,.233.012.234.242,0,.059,0,.119,0,.178V29.895c0,.065,0,.13,0,.194.007.117.03.139.146.147.038,0,.076,0,.113,0h2.737c.267,0,.267,0,.267-.271q0-2.824,0-5.649" transform="translate(0 0.001)" fill="#c6c6c6"/>
      </g>
    </g>
  </g>
</svg>
